M48
; DRILL file KiCad 10.0.0 date 2026-10-08T14:06:41
; FORMAT={-:-/ absolute / metric / decimal}
; #@! TF.CreationDate,2026-10-08T14:06:41-05:00
; #@! TF.GenerationSoftware,Kicad,Pcbnew,10.0.0
; #@! TF.FileFunction,Plated,1,2,PTH
FMAT,2
METRIC
; #@! TA.AperFunction,Plated,PTH,ComponentDrill
T1C0.700
; #@! TA.AperFunction,Plated,PTH,ComponentDrill
T2C0.750
; #@! TA.AperFunction,Plated,PTH,ComponentDrill
T3C0.800
; #@! TA.AperFunction,Plated,PTH,ComponentDrill
T4C0.950
; #@! TA.AperFunction,Plated,PTH,ComponentDrill
T5C1.000
; #@! TA.AperFunction,Plated,PTH,ComponentDrill
T6C1.016
; #@! TA.AperFunction,Plated,PTH,ComponentDrill
T7C1.100
; #@! TA.AperFunction,Plated,PTH,ComponentDrill
T8C2.500
; #@! TA.AperFunction,Plated,PTH,ComponentDrill
T9C2.750
%
G90
G05
T1
X199.542Y-47.768
X199.542Y-49.768
X201.542Y-47.768
X201.542Y-49.768
X203.542Y-47.768
X203.542Y-49.768
T2
X193.802Y-41.148
X193.802Y-43.688
X193.802Y-46.228
X193.802Y-48.768
X193.802Y-51.308
T3
X190.752Y-34.798
X190.752Y-37.338
X190.752Y-39.878
X190.752Y-42.418
X190.752Y-44.958
X190.752Y-47.498
X190.752Y-50.038
X190.752Y-52.578
X190.752Y-55.118
X190.752Y-57.658
X190.752Y-60.198
X190.752Y-62.738
X190.752Y-65.278
X190.752Y-67.818
X190.752Y-70.358
X190.752Y-72.898
X190.752Y-75.438
X190.752Y-77.978
X190.752Y-80.518
X190.752Y-83.058
X190.752Y-85.598
X190.752Y-88.138
X190.752Y-90.678
X190.752Y-93.218
X193.292Y-80.518
X195.832Y-80.518
X200.912Y-80.518
X203.452Y-37.338
X203.452Y-80.518
X205.992Y-34.798
X205.992Y-37.338
X205.992Y-39.878
X205.992Y-42.418
X205.992Y-44.958
X205.992Y-47.498
X205.992Y-50.038
X205.992Y-52.578
X205.992Y-55.118
X205.992Y-57.658
X205.992Y-60.198
X205.992Y-62.738
X205.992Y-65.278
X205.992Y-67.818
X205.992Y-70.358
X205.992Y-72.898
X205.992Y-75.438
X205.992Y-77.978
X205.992Y-80.518
X205.992Y-83.058
X205.992Y-85.598
X205.992Y-88.138
X205.992Y-90.678
X205.992Y-93.218
T4
X158.068Y-55.88
X160.568Y-55.88
X163.068Y-55.88
X182.666Y-102.062
X183.896Y-37.244
X183.896Y-39.744
X183.896Y-42.244
X183.896Y-44.744
X183.896Y-47.244
X183.896Y-49.744
X184.404Y-56.388
X184.404Y-58.888
X184.404Y-61.388
X184.404Y-63.888
X185.166Y-102.062
X187.666Y-102.062
T5
X88.392Y-43.18
X88.392Y-45.72
X88.392Y-48.26
X90.932Y-43.18
X90.932Y-45.72
X90.932Y-48.26
X93.472Y-43.18
X93.472Y-45.72
X93.472Y-48.26
X96.012Y-43.18
X96.012Y-45.72
X96.012Y-48.26
X101.092Y-43.18
X101.092Y-45.72
X101.092Y-48.26
X103.632Y-43.18
X103.632Y-45.72
X103.632Y-48.26
X106.172Y-43.18
X106.172Y-45.72
X106.172Y-48.26
X108.712Y-43.18
X108.712Y-45.72
X108.712Y-48.26
X116.332Y-43.18
X116.332Y-45.72
X116.332Y-48.26
X118.872Y-43.18
X118.872Y-45.72
X118.872Y-48.26
X121.412Y-43.18
X121.412Y-45.72
X121.412Y-48.26
X123.952Y-43.18
X123.952Y-45.72
X123.952Y-48.26
X129.032Y-43.18
X129.032Y-45.72
X129.032Y-48.26
X131.572Y-43.18
X131.572Y-45.72
X131.572Y-48.26
X134.112Y-43.18
X134.112Y-45.72
X134.112Y-48.26
X136.652Y-43.18
X136.652Y-45.72
X136.652Y-48.26
X155.194Y-27.94
X155.194Y-45.72
X157.734Y-27.94
X157.734Y-45.72
X160.274Y-27.94
X160.274Y-45.72
X162.814Y-27.94
X162.814Y-45.72
X165.354Y-27.94
X165.354Y-45.72
X167.894Y-27.94
X167.894Y-45.72
X183.896Y-70.906
X183.896Y-73.406
X187.492Y-30.226
X189.992Y-30.226
T6
X83.312Y-30.48
X83.312Y-33.02
X83.312Y-35.56
X83.312Y-38.1
X83.312Y-40.64
X83.312Y-43.18
X98.624Y-64.735
X98.624Y-67.275
X101.164Y-64.735
X101.164Y-67.275
X103.704Y-64.735
X103.704Y-67.275
X106.244Y-64.735
X106.244Y-67.275
X108.784Y-64.735
X108.784Y-67.275
X111.324Y-64.735
X111.324Y-67.275
X113.864Y-64.735
X113.864Y-67.275
X116.404Y-64.735
X116.404Y-67.275
X118.944Y-64.735
X118.944Y-67.275
X121.484Y-64.735
X121.484Y-67.275
X124.024Y-64.735
X124.024Y-67.275
X126.564Y-64.735
X126.564Y-67.275
X129.104Y-64.735
X129.104Y-67.275
X131.644Y-64.735
X131.644Y-67.275
X134.184Y-64.735
X134.184Y-67.275
X136.724Y-64.735
X136.724Y-67.275
X139.264Y-64.735
X139.264Y-67.275
X141.605Y-30.48
X141.605Y-33.02
X141.605Y-35.56
X141.605Y-38.1
X141.605Y-40.64
X141.605Y-43.18
X141.804Y-64.735
X141.804Y-67.275
X144.344Y-64.735
X144.344Y-67.275
X146.884Y-64.735
X146.884Y-67.275
T8
X84.582Y-27.432
X84.582Y-46.482
X140.462Y-27.432
X140.462Y-46.482
X151.384Y-27.94
X151.384Y-45.72
X171.704Y-27.94
X171.704Y-45.72
T9
X93.754Y-66.005
X93.754Y-115.005
X151.754Y-66.005
X151.754Y-115.005
T3
G00X199.136Y-103.691
M15
G01X199.136Y-101.541
M16
G05
G00X204.136Y-103.691
M15
G01X204.136Y-101.541
M16
G05
T7
G00X197.1Y-115.828
M15
G01X197.1Y-116.328
M16
G05
G00X197.1Y-120.428
M15
G01X197.1Y-120.928
M16
G05
G00X201.4Y-115.828
M15
G01X201.4Y-116.328
M16
G05
G00X201.4Y-120.428
M15
G01X201.4Y-120.928
M16
G05
G00X205.7Y-115.828
M15
G01X205.7Y-116.328
M16
G05
G00X205.7Y-120.428
M15
G01X205.7Y-120.928
M16
G05
M30
