%TF.GenerationSoftware,KiCad,Pcbnew,10.0.0*%
%TF.CreationDate,2026-10-01T17:28:23-05:00*%
%TF.ProjectId,PCB,5043422e-6b69-4636-9164-5f7063625858,rev?*%
%TF.SameCoordinates,Original*%
%TF.FileFunction,Legend,Top*%
%TF.FilePolarity,Positive*%
%FSLAX46Y46*%
G04 Gerber Fmt 4.6, Leading zero omitted, Abs format (unit mm)*
G04 Created by KiCad (PCBNEW 10.0.0) date 2026-10-01 17:28:23*
%MOMM*%
%LPD*%
G01*
G04 APERTURE LIST*
%ADD10C,0.150000*%
%ADD11C,0.127000*%
%ADD12C,0.200000*%
%ADD13C,0.120000*%
%ADD14C,0.500000*%
%ADD15C,0.250000*%
%ADD16C,0.400000*%
G04 APERTURE END LIST*
D10*
X208121819Y-37464904D02*
X208931342Y-37464904D01*
X208931342Y-37464904D02*
X209026580Y-37417285D01*
X209026580Y-37417285D02*
X209074200Y-37369666D01*
X209074200Y-37369666D02*
X209121819Y-37274428D01*
X209121819Y-37274428D02*
X209121819Y-37083952D01*
X209121819Y-37083952D02*
X209074200Y-36988714D01*
X209074200Y-36988714D02*
X209026580Y-36941095D01*
X209026580Y-36941095D02*
X208931342Y-36893476D01*
X208931342Y-36893476D02*
X208121819Y-36893476D01*
X209121819Y-35893476D02*
X209121819Y-36464904D01*
X209121819Y-36179190D02*
X208121819Y-36179190D01*
X208121819Y-36179190D02*
X208264676Y-36274428D01*
X208264676Y-36274428D02*
X208359914Y-36369666D01*
X208359914Y-36369666D02*
X208407533Y-36464904D01*
X151007095Y-22969819D02*
X151007095Y-23779342D01*
X151007095Y-23779342D02*
X151054714Y-23874580D01*
X151054714Y-23874580D02*
X151102333Y-23922200D01*
X151102333Y-23922200D02*
X151197571Y-23969819D01*
X151197571Y-23969819D02*
X151388047Y-23969819D01*
X151388047Y-23969819D02*
X151483285Y-23922200D01*
X151483285Y-23922200D02*
X151530904Y-23874580D01*
X151530904Y-23874580D02*
X151578523Y-23779342D01*
X151578523Y-23779342D02*
X151578523Y-22969819D01*
X152007095Y-23065057D02*
X152054714Y-23017438D01*
X152054714Y-23017438D02*
X152149952Y-22969819D01*
X152149952Y-22969819D02*
X152388047Y-22969819D01*
X152388047Y-22969819D02*
X152483285Y-23017438D01*
X152483285Y-23017438D02*
X152530904Y-23065057D01*
X152530904Y-23065057D02*
X152578523Y-23160295D01*
X152578523Y-23160295D02*
X152578523Y-23255533D01*
X152578523Y-23255533D02*
X152530904Y-23398390D01*
X152530904Y-23398390D02*
X151959476Y-23969819D01*
X151959476Y-23969819D02*
X152578523Y-23969819D01*
X83570095Y-21826819D02*
X83570095Y-22636342D01*
X83570095Y-22636342D02*
X83617714Y-22731580D01*
X83617714Y-22731580D02*
X83665333Y-22779200D01*
X83665333Y-22779200D02*
X83760571Y-22826819D01*
X83760571Y-22826819D02*
X83951047Y-22826819D01*
X83951047Y-22826819D02*
X84046285Y-22779200D01*
X84046285Y-22779200D02*
X84093904Y-22731580D01*
X84093904Y-22731580D02*
X84141523Y-22636342D01*
X84141523Y-22636342D02*
X84141523Y-21826819D01*
X85046285Y-22160152D02*
X85046285Y-22826819D01*
X84808190Y-21779200D02*
X84570095Y-22493485D01*
X84570095Y-22493485D02*
X85189142Y-22493485D01*
X184832666Y-98716819D02*
X184832666Y-99431104D01*
X184832666Y-99431104D02*
X184785047Y-99573961D01*
X184785047Y-99573961D02*
X184689809Y-99669200D01*
X184689809Y-99669200D02*
X184546952Y-99716819D01*
X184546952Y-99716819D02*
X184451714Y-99716819D01*
X185832666Y-99716819D02*
X185261238Y-99716819D01*
X185546952Y-99716819D02*
X185546952Y-98716819D01*
X185546952Y-98716819D02*
X185451714Y-98859676D01*
X185451714Y-98859676D02*
X185356476Y-98954914D01*
X185356476Y-98954914D02*
X185261238Y-99002533D01*
X209107200Y-119711332D02*
X209154819Y-119568475D01*
X209154819Y-119568475D02*
X209154819Y-119330380D01*
X209154819Y-119330380D02*
X209107200Y-119235142D01*
X209107200Y-119235142D02*
X209059580Y-119187523D01*
X209059580Y-119187523D02*
X208964342Y-119139904D01*
X208964342Y-119139904D02*
X208869104Y-119139904D01*
X208869104Y-119139904D02*
X208773866Y-119187523D01*
X208773866Y-119187523D02*
X208726247Y-119235142D01*
X208726247Y-119235142D02*
X208678628Y-119330380D01*
X208678628Y-119330380D02*
X208631009Y-119520856D01*
X208631009Y-119520856D02*
X208583390Y-119616094D01*
X208583390Y-119616094D02*
X208535771Y-119663713D01*
X208535771Y-119663713D02*
X208440533Y-119711332D01*
X208440533Y-119711332D02*
X208345295Y-119711332D01*
X208345295Y-119711332D02*
X208250057Y-119663713D01*
X208250057Y-119663713D02*
X208202438Y-119616094D01*
X208202438Y-119616094D02*
X208154819Y-119520856D01*
X208154819Y-119520856D02*
X208154819Y-119282761D01*
X208154819Y-119282761D02*
X208202438Y-119139904D01*
X208154819Y-118806570D02*
X209154819Y-118568475D01*
X209154819Y-118568475D02*
X208440533Y-118377999D01*
X208440533Y-118377999D02*
X209154819Y-118187523D01*
X209154819Y-118187523D02*
X208154819Y-117949428D01*
X209154819Y-117044666D02*
X209154819Y-117616094D01*
X209154819Y-117330380D02*
X208154819Y-117330380D01*
X208154819Y-117330380D02*
X208297676Y-117425618D01*
X208297676Y-117425618D02*
X208392914Y-117520856D01*
X208392914Y-117520856D02*
X208440533Y-117616094D01*
X180550819Y-72489333D02*
X181265104Y-72489333D01*
X181265104Y-72489333D02*
X181407961Y-72536952D01*
X181407961Y-72536952D02*
X181503200Y-72632190D01*
X181503200Y-72632190D02*
X181550819Y-72775047D01*
X181550819Y-72775047D02*
X181550819Y-72870285D01*
X180550819Y-72108380D02*
X180550819Y-71441714D01*
X180550819Y-71441714D02*
X181550819Y-71870285D01*
X94667095Y-60324819D02*
X94667095Y-61134342D01*
X94667095Y-61134342D02*
X94714714Y-61229580D01*
X94714714Y-61229580D02*
X94762333Y-61277200D01*
X94762333Y-61277200D02*
X94857571Y-61324819D01*
X94857571Y-61324819D02*
X95048047Y-61324819D01*
X95048047Y-61324819D02*
X95143285Y-61277200D01*
X95143285Y-61277200D02*
X95190904Y-61229580D01*
X95190904Y-61229580D02*
X95238523Y-61134342D01*
X95238523Y-61134342D02*
X95238523Y-60324819D01*
X96143285Y-60324819D02*
X95952809Y-60324819D01*
X95952809Y-60324819D02*
X95857571Y-60372438D01*
X95857571Y-60372438D02*
X95809952Y-60420057D01*
X95809952Y-60420057D02*
X95714714Y-60562914D01*
X95714714Y-60562914D02*
X95667095Y-60753390D01*
X95667095Y-60753390D02*
X95667095Y-61134342D01*
X95667095Y-61134342D02*
X95714714Y-61229580D01*
X95714714Y-61229580D02*
X95762333Y-61277200D01*
X95762333Y-61277200D02*
X95857571Y-61324819D01*
X95857571Y-61324819D02*
X96048047Y-61324819D01*
X96048047Y-61324819D02*
X96143285Y-61277200D01*
X96143285Y-61277200D02*
X96190904Y-61229580D01*
X96190904Y-61229580D02*
X96238523Y-61134342D01*
X96238523Y-61134342D02*
X96238523Y-60896247D01*
X96238523Y-60896247D02*
X96190904Y-60801009D01*
X96190904Y-60801009D02*
X96143285Y-60753390D01*
X96143285Y-60753390D02*
X96048047Y-60705771D01*
X96048047Y-60705771D02*
X95857571Y-60705771D01*
X95857571Y-60705771D02*
X95762333Y-60753390D01*
X95762333Y-60753390D02*
X95714714Y-60801009D01*
X95714714Y-60801009D02*
X95667095Y-60896247D01*
X200874095Y-97870819D02*
X200874095Y-98680342D01*
X200874095Y-98680342D02*
X200921714Y-98775580D01*
X200921714Y-98775580D02*
X200969333Y-98823200D01*
X200969333Y-98823200D02*
X201064571Y-98870819D01*
X201064571Y-98870819D02*
X201255047Y-98870819D01*
X201255047Y-98870819D02*
X201350285Y-98823200D01*
X201350285Y-98823200D02*
X201397904Y-98775580D01*
X201397904Y-98775580D02*
X201445523Y-98680342D01*
X201445523Y-98680342D02*
X201445523Y-97870819D01*
X201826476Y-97870819D02*
X202445523Y-97870819D01*
X202445523Y-97870819D02*
X202112190Y-98251771D01*
X202112190Y-98251771D02*
X202255047Y-98251771D01*
X202255047Y-98251771D02*
X202350285Y-98299390D01*
X202350285Y-98299390D02*
X202397904Y-98347009D01*
X202397904Y-98347009D02*
X202445523Y-98442247D01*
X202445523Y-98442247D02*
X202445523Y-98680342D01*
X202445523Y-98680342D02*
X202397904Y-98775580D01*
X202397904Y-98775580D02*
X202350285Y-98823200D01*
X202350285Y-98823200D02*
X202255047Y-98870819D01*
X202255047Y-98870819D02*
X201969333Y-98870819D01*
X201969333Y-98870819D02*
X201874095Y-98823200D01*
X201874095Y-98823200D02*
X201826476Y-98775580D01*
X180550819Y-43827333D02*
X181265104Y-43827333D01*
X181265104Y-43827333D02*
X181407961Y-43874952D01*
X181407961Y-43874952D02*
X181503200Y-43970190D01*
X181503200Y-43970190D02*
X181550819Y-44113047D01*
X181550819Y-44113047D02*
X181550819Y-44208285D01*
X180550819Y-42922571D02*
X180550819Y-43113047D01*
X180550819Y-43113047D02*
X180598438Y-43208285D01*
X180598438Y-43208285D02*
X180646057Y-43255904D01*
X180646057Y-43255904D02*
X180788914Y-43351142D01*
X180788914Y-43351142D02*
X180979390Y-43398761D01*
X180979390Y-43398761D02*
X181360342Y-43398761D01*
X181360342Y-43398761D02*
X181455580Y-43351142D01*
X181455580Y-43351142D02*
X181503200Y-43303523D01*
X181503200Y-43303523D02*
X181550819Y-43208285D01*
X181550819Y-43208285D02*
X181550819Y-43017809D01*
X181550819Y-43017809D02*
X181503200Y-42922571D01*
X181503200Y-42922571D02*
X181455580Y-42874952D01*
X181455580Y-42874952D02*
X181360342Y-42827333D01*
X181360342Y-42827333D02*
X181122247Y-42827333D01*
X181122247Y-42827333D02*
X181027009Y-42874952D01*
X181027009Y-42874952D02*
X180979390Y-42922571D01*
X180979390Y-42922571D02*
X180931771Y-43017809D01*
X180931771Y-43017809D02*
X180931771Y-43208285D01*
X180931771Y-43208285D02*
X180979390Y-43303523D01*
X180979390Y-43303523D02*
X181027009Y-43351142D01*
X181027009Y-43351142D02*
X181122247Y-43398761D01*
X160234666Y-58134819D02*
X160234666Y-58849104D01*
X160234666Y-58849104D02*
X160187047Y-58991961D01*
X160187047Y-58991961D02*
X160091809Y-59087200D01*
X160091809Y-59087200D02*
X159948952Y-59134819D01*
X159948952Y-59134819D02*
X159853714Y-59134819D01*
X161139428Y-58468152D02*
X161139428Y-59134819D01*
X160901333Y-58087200D02*
X160663238Y-58801485D01*
X160663238Y-58801485D02*
X161282285Y-58801485D01*
X188408666Y-32480819D02*
X188408666Y-33195104D01*
X188408666Y-33195104D02*
X188361047Y-33337961D01*
X188361047Y-33337961D02*
X188265809Y-33433200D01*
X188265809Y-33433200D02*
X188122952Y-33480819D01*
X188122952Y-33480819D02*
X188027714Y-33480819D01*
X188789619Y-32480819D02*
X189408666Y-32480819D01*
X189408666Y-32480819D02*
X189075333Y-32861771D01*
X189075333Y-32861771D02*
X189218190Y-32861771D01*
X189218190Y-32861771D02*
X189313428Y-32909390D01*
X189313428Y-32909390D02*
X189361047Y-32957009D01*
X189361047Y-32957009D02*
X189408666Y-33052247D01*
X189408666Y-33052247D02*
X189408666Y-33290342D01*
X189408666Y-33290342D02*
X189361047Y-33385580D01*
X189361047Y-33385580D02*
X189313428Y-33433200D01*
X189313428Y-33433200D02*
X189218190Y-33480819D01*
X189218190Y-33480819D02*
X188932476Y-33480819D01*
X188932476Y-33480819D02*
X188837238Y-33433200D01*
X188837238Y-33433200D02*
X188789619Y-33385580D01*
X186658819Y-60471333D02*
X187373104Y-60471333D01*
X187373104Y-60471333D02*
X187515961Y-60518952D01*
X187515961Y-60518952D02*
X187611200Y-60614190D01*
X187611200Y-60614190D02*
X187658819Y-60757047D01*
X187658819Y-60757047D02*
X187658819Y-60852285D01*
X186658819Y-59518952D02*
X186658819Y-59995142D01*
X186658819Y-59995142D02*
X187135009Y-60042761D01*
X187135009Y-60042761D02*
X187087390Y-59995142D01*
X187087390Y-59995142D02*
X187039771Y-59899904D01*
X187039771Y-59899904D02*
X187039771Y-59661809D01*
X187039771Y-59661809D02*
X187087390Y-59566571D01*
X187087390Y-59566571D02*
X187135009Y-59518952D01*
X187135009Y-59518952D02*
X187230247Y-59471333D01*
X187230247Y-59471333D02*
X187468342Y-59471333D01*
X187468342Y-59471333D02*
X187563580Y-59518952D01*
X187563580Y-59518952D02*
X187611200Y-59566571D01*
X187611200Y-59566571D02*
X187658819Y-59661809D01*
X187658819Y-59661809D02*
X187658819Y-59899904D01*
X187658819Y-59899904D02*
X187611200Y-59995142D01*
X187611200Y-59995142D02*
X187563580Y-60042761D01*
%TO.C,U1*%
D11*
X189482000Y-33528000D02*
X194342000Y-33528000D01*
X189482000Y-94488000D02*
X189482000Y-33528000D01*
X194342000Y-32828000D02*
X202402000Y-32828000D01*
X194342000Y-33528000D02*
X194342000Y-32828000D01*
X202402000Y-33528000D02*
X202402000Y-32828000D01*
X207262000Y-33528000D02*
X202402000Y-33528000D01*
X207262000Y-33528000D02*
X207262000Y-94488000D01*
X207262000Y-94488000D02*
X189482000Y-94488000D01*
D12*
X188972000Y-39878000D02*
G75*
G02*
X188772000Y-39878000I-100000J0D01*
G01*
X188772000Y-39878000D02*
G75*
G02*
X188972000Y-39878000I100000J0D01*
G01*
%TO.C,U2*%
D11*
X148844000Y-27940000D02*
X148844000Y-45720000D01*
X151384000Y-48260000D02*
X171704000Y-48260000D01*
X171704000Y-25400000D02*
X151384000Y-25400000D01*
X174244000Y-45720000D02*
X174244000Y-27940000D01*
X148844000Y-27940000D02*
G75*
G02*
X151384000Y-25400000I2540001J-1D01*
G01*
X151384000Y-48260000D02*
G75*
G02*
X148844000Y-45720000I1J2540001D01*
G01*
X171704000Y-25400000D02*
G75*
G02*
X174244000Y-27940000I0J-2540000D01*
G01*
X174244000Y-45720000D02*
G75*
G02*
X171704000Y-48260000I-2540000J0D01*
G01*
D12*
X155294000Y-49010000D02*
G75*
G02*
X155094000Y-49010000I-100000J0D01*
G01*
X155094000Y-49010000D02*
G75*
G02*
X155294000Y-49010000I100000J0D01*
G01*
%TO.C,U4*%
D11*
X81407000Y-46482000D02*
X81407000Y-27432000D01*
X84582000Y-24257000D02*
X140462000Y-24257000D01*
X140462000Y-49657000D02*
X84582000Y-49657000D01*
X143637000Y-27432000D02*
X143637000Y-46482000D01*
X81407000Y-27432000D02*
G75*
G02*
X84582000Y-24257000I3175000J0D01*
G01*
X84582000Y-49657000D02*
G75*
G02*
X81407000Y-46482000I0J3175000D01*
G01*
X140462000Y-24257000D02*
G75*
G02*
X143637000Y-27432000I0J-3175000D01*
G01*
X143637000Y-46482000D02*
G75*
G02*
X140462000Y-49657000I-3175000J0D01*
G01*
%TO.C,J1*%
D13*
X179756000Y-102172000D02*
X179756000Y-104672000D01*
X179756000Y-104672000D02*
X182256000Y-104672000D01*
X180056000Y-102062000D02*
X180556000Y-102062000D01*
X180056000Y-102872000D02*
X181056000Y-102872000D01*
X180556000Y-100852000D02*
X189776000Y-100852000D01*
X180556000Y-102062000D02*
X180556000Y-100852000D01*
X181056000Y-102872000D02*
X181056000Y-104372000D01*
X189276000Y-102872000D02*
X189276000Y-104372000D01*
X189776000Y-100852000D02*
X189776000Y-102062000D01*
X189776000Y-102062000D02*
X190276000Y-102062000D01*
X190276000Y-102872000D02*
X189276000Y-102872000D01*
X180056000Y-100352000D02*
X190276000Y-100352000D01*
X190276000Y-104372000D01*
X180056000Y-104372000D01*
X180056000Y-100352000D01*
%TO.C,SW1*%
D14*
X205700000Y-115278000D02*
X205700000Y-114678000D01*
D15*
X195000000Y-114078000D02*
X207800000Y-114078000D01*
X207800000Y-122678000D01*
X195000000Y-122678000D01*
X195000000Y-114078000D01*
%TO.C,J7*%
D13*
X182686000Y-68796000D02*
X183896000Y-68796000D01*
X182686000Y-75516000D02*
X182686000Y-68796000D01*
X183896000Y-68796000D02*
X183896000Y-68296000D01*
X183896000Y-75516000D02*
X182686000Y-75516000D01*
X183896000Y-76016000D02*
X183896000Y-75516000D01*
X184006000Y-76316000D02*
X186506000Y-76316000D01*
X184706000Y-68296000D02*
X184706000Y-69296000D01*
X184706000Y-69296000D02*
X186206000Y-69296000D01*
X184706000Y-75016000D02*
X186206000Y-75016000D01*
X184706000Y-76016000D02*
X184706000Y-75016000D01*
X186506000Y-76316000D02*
X186506000Y-73816000D01*
X182186000Y-68296000D02*
X186206000Y-68296000D01*
X186206000Y-76016000D01*
X182186000Y-76016000D01*
X182186000Y-68296000D01*
%TO.C,U6*%
D11*
X90254000Y-65505000D02*
X90254000Y-115505000D01*
X93254000Y-118505000D02*
X172254000Y-118505000D01*
X172254000Y-62505000D02*
X93254000Y-62505000D01*
X175254000Y-115505000D02*
X175254000Y-65505000D01*
X90254000Y-65505000D02*
G75*
G02*
X93254000Y-62505000I3000001J-1D01*
G01*
X93254000Y-118505000D02*
G75*
G02*
X90254000Y-115505000I1J3000001D01*
G01*
X172254000Y-62505000D02*
G75*
G02*
X175254000Y-65505000I0J-3000000D01*
G01*
X175254000Y-115505000D02*
G75*
G02*
X172254000Y-118505000I-3000000J0D01*
G01*
D12*
X89454000Y-67505000D02*
G75*
G02*
X89254000Y-67505000I-100000J0D01*
G01*
X89254000Y-67505000D02*
G75*
G02*
X89454000Y-67505000I100000J0D01*
G01*
%TO.C,U3*%
D15*
X195136000Y-99616000D02*
X208136000Y-99616000D01*
X208136000Y-105616000D01*
X195136000Y-105616000D01*
X195136000Y-99616000D01*
D16*
X196136000Y-100416000D02*
G75*
G02*
X195736000Y-100416000I-200000J0D01*
G01*
X195736000Y-100416000D02*
G75*
G02*
X196136000Y-100416000I200000J0D01*
G01*
%TO.C,J6*%
D13*
X182686000Y-35134000D02*
X183896000Y-35134000D01*
X182686000Y-51854000D02*
X182686000Y-35134000D01*
X183896000Y-35134000D02*
X183896000Y-34634000D01*
X183896000Y-51854000D02*
X182686000Y-51854000D01*
X183896000Y-52354000D02*
X183896000Y-51854000D01*
X184006000Y-52654000D02*
X186506000Y-52654000D01*
X184706000Y-34634000D02*
X184706000Y-35634000D01*
X184706000Y-35634000D02*
X186206000Y-35634000D01*
X184706000Y-51354000D02*
X186206000Y-51354000D01*
X184706000Y-52354000D02*
X184706000Y-51354000D01*
X186506000Y-52654000D02*
X186506000Y-50154000D01*
X182186000Y-34634000D02*
X186206000Y-34634000D01*
X186206000Y-52354000D01*
X182186000Y-52354000D01*
X182186000Y-34634000D01*
%TO.C,J4*%
X155458000Y-55070000D02*
X156458000Y-55070000D01*
X155958000Y-55880000D02*
X155458000Y-55880000D01*
X155958000Y-57090000D02*
X155958000Y-55880000D01*
X156458000Y-55070000D02*
X156458000Y-53570000D01*
X164678000Y-55070000D02*
X164678000Y-53570000D01*
X165178000Y-55880000D02*
X165178000Y-57090000D01*
X165178000Y-57090000D02*
X155958000Y-57090000D01*
X165678000Y-55070000D02*
X164678000Y-55070000D01*
X165678000Y-55880000D02*
X165178000Y-55880000D01*
X165978000Y-53270000D02*
X163478000Y-53270000D01*
X165978000Y-55770000D02*
X165978000Y-53270000D01*
X155458000Y-53570000D02*
X165678000Y-53570000D01*
X165678000Y-57590000D01*
X155458000Y-57590000D01*
X155458000Y-53570000D01*
%TO.C,J3*%
X184882000Y-29416000D02*
X185882000Y-29416000D01*
X185382000Y-30226000D02*
X184882000Y-30226000D01*
X185382000Y-31436000D02*
X185382000Y-30226000D01*
X185882000Y-29416000D02*
X185882000Y-27916000D01*
X191602000Y-29416000D02*
X191602000Y-27916000D01*
X192102000Y-30226000D02*
X192102000Y-31436000D01*
X192102000Y-31436000D02*
X185382000Y-31436000D01*
X192602000Y-29416000D02*
X191602000Y-29416000D01*
X192602000Y-30226000D02*
X192102000Y-30226000D01*
X192902000Y-27616000D02*
X190402000Y-27616000D01*
X192902000Y-30116000D02*
X192902000Y-27616000D01*
X184882000Y-27916000D02*
X192602000Y-27916000D01*
X192602000Y-31936000D01*
X184882000Y-31936000D01*
X184882000Y-27916000D01*
%TO.C,J5*%
X181794000Y-53478000D02*
X181794000Y-55978000D01*
X183594000Y-53778000D02*
X183594000Y-54778000D01*
X183594000Y-54778000D02*
X182094000Y-54778000D01*
X183594000Y-65498000D02*
X182094000Y-65498000D01*
X183594000Y-66498000D02*
X183594000Y-65498000D01*
X184294000Y-53478000D02*
X181794000Y-53478000D01*
X184404000Y-53778000D02*
X184404000Y-54278000D01*
X184404000Y-54278000D02*
X185614000Y-54278000D01*
X184404000Y-65998000D02*
X184404000Y-66498000D01*
X185614000Y-54278000D02*
X185614000Y-65998000D01*
X185614000Y-65998000D02*
X184404000Y-65998000D01*
X182094000Y-53778000D02*
X186114000Y-53778000D01*
X186114000Y-66498000D01*
X182094000Y-66498000D01*
X182094000Y-53778000D01*
%TD*%
M02*
