%TF.GenerationSoftware,KiCad,Pcbnew,10.0.0*%
%TF.CreationDate,2026-10-01T17:28:23-05:00*%
%TF.ProjectId,PCB,5043422e-6b69-4636-9164-5f7063625858,rev?*%
%TF.SameCoordinates,Original*%
%TF.FileFunction,Soldermask,Top*%
%TF.FilePolarity,Negative*%
%FSLAX46Y46*%
G04 Gerber Fmt 4.6, Leading zero omitted, Abs format (unit mm)*
G04 Created by KiCad (PCBNEW 10.0.0) date 2026-10-01 17:28:23*
%MOMM*%
%LPD*%
G01*
G04 APERTURE LIST*
G04 Aperture macros list*
%AMRoundRect*
0 Rectangle with rounded corners*
0 $1 Rounding radius*
0 $2 $3 $4 $5 $6 $7 $8 $9 X,Y pos of 4 corners*
0 Add a 4 corners polygon primitive as box body*
4,1,4,$2,$3,$4,$5,$6,$7,$8,$9,$2,$3,0*
0 Add four circle primitives for the rounded corners*
1,1,$1+$1,$2,$3*
1,1,$1+$1,$4,$5*
1,1,$1+$1,$6,$7*
1,1,$1+$1,$8,$9*
0 Add four rect primitives between the rounded corners*
20,1,$1+$1,$2,$3,$4,$5,0*
20,1,$1+$1,$4,$5,$6,$7,0*
20,1,$1+$1,$6,$7,$8,$9,0*
20,1,$1+$1,$8,$9,$2,$3,0*%
G04 Aperture macros list end*
%ADD10C,1.512000*%
%ADD11C,1.462000*%
%ADD12C,1.412000*%
%ADD13C,1.982000*%
%ADD14C,3.404000*%
%ADD15RoundRect,0.250000X-0.600000X-0.725000X0.600000X-0.725000X0.600000X0.725000X-0.600000X0.725000X0*%
%ADD16O,1.700000X1.950000*%
%ADD17R,1.700000X2.200000*%
%ADD18O,1.700000X2.200000*%
%ADD19RoundRect,0.250000X0.750000X-0.600000X0.750000X0.600000X-0.750000X0.600000X-0.750000X-0.600000X0*%
%ADD20O,2.000000X1.700000*%
%ADD21RoundRect,0.102000X-0.762000X-0.762000X0.762000X-0.762000X0.762000X0.762000X-0.762000X0.762000X0*%
%ADD22C,1.728000*%
%ADD23C,6.404000*%
%ADD24R,1.400000X3.400000*%
%ADD25O,1.400000X3.400000*%
%ADD26RoundRect,0.250000X0.725000X-0.600000X0.725000X0.600000X-0.725000X0.600000X-0.725000X-0.600000X0*%
%ADD27O,1.950000X1.700000*%
%ADD28RoundRect,0.250000X0.600000X0.725000X-0.600000X0.725000X-0.600000X-0.725000X0.600000X-0.725000X0*%
%ADD29RoundRect,0.250000X0.600000X0.750000X-0.600000X0.750000X-0.600000X-0.750000X0.600000X-0.750000X0*%
%ADD30O,1.700000X2.000000*%
%ADD31RoundRect,0.250000X-0.725000X0.600000X-0.725000X-0.600000X0.725000X-0.600000X0.725000X0.600000X0*%
G04 APERTURE END LIST*
D10*
%TO.C,U1*%
X190752000Y-37338000D03*
X190752000Y-39878000D03*
X190752000Y-42418000D03*
X190752000Y-44958000D03*
X190752000Y-70358000D03*
X205992000Y-39878000D03*
X195832000Y-80518000D03*
X190752000Y-47498000D03*
X190752000Y-50038000D03*
D11*
X193802000Y-41148000D03*
D10*
X190752000Y-52578000D03*
X190752000Y-55118000D03*
X190752000Y-57658000D03*
X190752000Y-60198000D03*
X190752000Y-62738000D03*
X190752000Y-65278000D03*
X190752000Y-67818000D03*
X205992000Y-67818000D03*
X205992000Y-65278000D03*
X205992000Y-62738000D03*
X205992000Y-60198000D03*
X205992000Y-57658000D03*
X205992000Y-55118000D03*
X205992000Y-52578000D03*
X205992000Y-50038000D03*
X205992000Y-47498000D03*
X205992000Y-44958000D03*
X205992000Y-42418000D03*
X190752000Y-72898000D03*
X190752000Y-75438000D03*
X190752000Y-77978000D03*
X190752000Y-80518000D03*
X190752000Y-83058000D03*
X190752000Y-85598000D03*
X190752000Y-88138000D03*
X190752000Y-90678000D03*
X190752000Y-93218000D03*
X205992000Y-93218000D03*
X205992000Y-90678000D03*
X205992000Y-88138000D03*
X205992000Y-85598000D03*
X205992000Y-83058000D03*
X205992000Y-80518000D03*
X205992000Y-77978000D03*
X205992000Y-75438000D03*
X205992000Y-72898000D03*
D11*
X193802000Y-46228000D03*
X193802000Y-43688000D03*
D10*
X205992000Y-37338000D03*
X190752000Y-34798000D03*
X205992000Y-70358000D03*
D12*
X201542000Y-49768000D03*
X201542000Y-47768000D03*
D10*
X203452000Y-80518000D03*
X200912000Y-80518000D03*
D12*
X203542000Y-47768000D03*
X203542000Y-49768000D03*
X199542000Y-49768000D03*
X199542000Y-47768000D03*
D11*
X193802000Y-48768000D03*
X193802000Y-51308000D03*
D10*
X193292000Y-80518000D03*
X203452000Y-37338000D03*
X205992000Y-34798000D03*
%TD*%
D13*
%TO.C,U2*%
X155194000Y-45720000D03*
X157734000Y-45720000D03*
X160274000Y-45720000D03*
X162814000Y-45720000D03*
X165354000Y-45720000D03*
X167894000Y-45720000D03*
X167894000Y-27940000D03*
X165354000Y-27940000D03*
X162814000Y-27940000D03*
X160274000Y-27940000D03*
X157734000Y-27940000D03*
X155194000Y-27940000D03*
D14*
X151384000Y-27940000D03*
X171704000Y-27940000D03*
X151384000Y-45720000D03*
X171704000Y-45720000D03*
%TD*%
D13*
%TO.C,U4*%
X88392000Y-43180000D03*
X90932000Y-43180000D03*
X93472000Y-43180000D03*
X96012000Y-43180000D03*
X101092000Y-43180000D03*
X103632000Y-43180000D03*
X106172000Y-43180000D03*
X108712000Y-43180000D03*
X116332000Y-43180000D03*
X118872000Y-43180000D03*
X121412000Y-43180000D03*
X123952000Y-43180000D03*
X129032000Y-43180000D03*
X131572000Y-43180000D03*
X134112000Y-43180000D03*
X136652000Y-43180000D03*
X83312000Y-30480000D03*
X141605000Y-30480000D03*
X88392000Y-48260000D03*
X90932000Y-48260000D03*
X93472000Y-48260000D03*
X96012000Y-48260000D03*
X101092000Y-48260000D03*
X103632000Y-48260000D03*
X106172000Y-48260000D03*
X108712000Y-48260000D03*
X116332000Y-48260000D03*
X118872000Y-48260000D03*
X121412000Y-48260000D03*
X123952000Y-48260000D03*
X129032000Y-48260000D03*
X131572000Y-48260000D03*
X134112000Y-48260000D03*
X136652000Y-48260000D03*
X83312000Y-33020000D03*
X141605000Y-33020000D03*
D14*
X84582000Y-27432000D03*
X140462000Y-27432000D03*
X84582000Y-46482000D03*
X140462000Y-46482000D03*
D13*
X83312000Y-35560000D03*
X141605000Y-35560000D03*
X83312000Y-38100000D03*
X141605000Y-38100000D03*
X83312000Y-43180000D03*
X141605000Y-43180000D03*
X88392000Y-45720000D03*
X90932000Y-45720000D03*
X93472000Y-45720000D03*
X96012000Y-45720000D03*
X101092000Y-45720000D03*
X103632000Y-45720000D03*
X106172000Y-45720000D03*
X108712000Y-45720000D03*
X116332000Y-45720000D03*
X118872000Y-45720000D03*
X121412000Y-45720000D03*
X123952000Y-45720000D03*
X129032000Y-45720000D03*
X131572000Y-45720000D03*
X134112000Y-45720000D03*
X136652000Y-45720000D03*
X83312000Y-40640000D03*
X141605000Y-40640000D03*
%TD*%
D15*
%TO.C,J1*%
X182666000Y-102062000D03*
D16*
X185166000Y-102062000D03*
X187666000Y-102062000D03*
%TD*%
D17*
%TO.C,SW1*%
X205700000Y-116078000D03*
D18*
X201400000Y-116078000D03*
X197100000Y-116078000D03*
X205700000Y-120678000D03*
X201400000Y-120678000D03*
X197100000Y-120678000D03*
%TD*%
D19*
%TO.C,J7*%
X183896000Y-73406000D03*
D20*
X183896000Y-70906000D03*
%TD*%
D21*
%TO.C,U6*%
X98624000Y-67275000D03*
D22*
X98624000Y-64735000D03*
X101164000Y-67275000D03*
X101164000Y-64735000D03*
X103704000Y-67275000D03*
X103704000Y-64735000D03*
X106244000Y-67275000D03*
X106244000Y-64735000D03*
X108784000Y-67275000D03*
X108784000Y-64735000D03*
X111324000Y-67275000D03*
X111324000Y-64735000D03*
X113864000Y-67275000D03*
X113864000Y-64735000D03*
X116404000Y-67275000D03*
X116404000Y-64735000D03*
X118944000Y-67275000D03*
X118944000Y-64735000D03*
X121484000Y-67275000D03*
X121484000Y-64735000D03*
X124024000Y-67275000D03*
X124024000Y-64735000D03*
X126564000Y-67275000D03*
X126564000Y-64735000D03*
X129104000Y-67275000D03*
X129104000Y-64735000D03*
X131644000Y-67275000D03*
X131644000Y-64735000D03*
X134184000Y-67275000D03*
X134184000Y-64735000D03*
X136724000Y-67275000D03*
X136724000Y-64735000D03*
X139264000Y-67275000D03*
X139264000Y-64735000D03*
X141804000Y-67275000D03*
X141804000Y-64735000D03*
X144344000Y-67275000D03*
X144344000Y-64735000D03*
X146884000Y-67275000D03*
X146884000Y-64735000D03*
D23*
X93754000Y-66005000D03*
X151754000Y-66005000D03*
X151754000Y-115005000D03*
X93754000Y-115005000D03*
%TD*%
D24*
%TO.C,U3*%
X199136000Y-102616000D03*
D25*
X204136000Y-102616000D03*
%TD*%
D26*
%TO.C,J6*%
X183896000Y-49744000D03*
D27*
X183896000Y-47244000D03*
X183896000Y-44744000D03*
X183896000Y-42244000D03*
X183896000Y-39744000D03*
X183896000Y-37244000D03*
%TD*%
D28*
%TO.C,J4*%
X163068000Y-55880000D03*
D16*
X160568000Y-55880000D03*
X158068000Y-55880000D03*
%TD*%
D29*
%TO.C,J3*%
X189992000Y-30226000D03*
D30*
X187492000Y-30226000D03*
%TD*%
D31*
%TO.C,J5*%
X184404000Y-56388000D03*
D27*
X184404000Y-58888000D03*
X184404000Y-61388000D03*
X184404000Y-63888000D03*
%TD*%
M02*
