%TF.GenerationSoftware,KiCad,Pcbnew,10.0.0*%
%TF.CreationDate,2026-09-24T14:49:51-05:00*%
%TF.ProjectId,PCB,5043422e-6b69-4636-9164-5f7063625858,rev?*%
%TF.SameCoordinates,Original*%
%TF.FileFunction,Copper,L2,Bot*%
%TF.FilePolarity,Positive*%
%FSLAX46Y46*%
G04 Gerber Fmt 4.6, Leading zero omitted, Abs format (unit mm)*
G04 Created by KiCad (PCBNEW 10.0.0) date 2026-09-24 14:49:51*
%MOMM*%
%LPD*%
G01*
G04 APERTURE LIST*
G04 Aperture macros list*
%AMRoundRect*
0 Rectangle with rounded corners*
0 $1 Rounding radius*
0 $2 $3 $4 $5 $6 $7 $8 $9 X,Y pos of 4 corners*
0 Add a 4 corners polygon primitive as box body*
4,1,4,$2,$3,$4,$5,$6,$7,$8,$9,$2,$3,0*
0 Add four circle primitives for the rounded corners*
1,1,$1+$1,$2,$3*
1,1,$1+$1,$4,$5*
1,1,$1+$1,$6,$7*
1,1,$1+$1,$8,$9*
0 Add four rect primitives between the rounded corners*
20,1,$1+$1,$2,$3,$4,$5,0*
20,1,$1+$1,$4,$5,$6,$7,0*
20,1,$1+$1,$6,$7,$8,$9,0*
20,1,$1+$1,$8,$9,$2,$3,0*%
G04 Aperture macros list end*
%TA.AperFunction,ComponentPad*%
%ADD10C,1.308000*%
%TD*%
%TA.AperFunction,ComponentPad*%
%ADD11C,1.258000*%
%TD*%
%TA.AperFunction,ComponentPad*%
%ADD12C,1.208000*%
%TD*%
%TA.AperFunction,ComponentPad*%
%ADD13RoundRect,0.250000X0.750000X-0.600000X0.750000X0.600000X-0.750000X0.600000X-0.750000X-0.600000X0*%
%TD*%
%TA.AperFunction,ComponentPad*%
%ADD14O,2.000000X1.700000*%
%TD*%
%TA.AperFunction,ComponentPad*%
%ADD15RoundRect,0.250000X0.725000X-0.600000X0.725000X0.600000X-0.725000X0.600000X-0.725000X-0.600000X0*%
%TD*%
%TA.AperFunction,ComponentPad*%
%ADD16O,1.950000X1.700000*%
%TD*%
%TA.AperFunction,ComponentPad*%
%ADD17RoundRect,0.250000X0.600000X0.725000X-0.600000X0.725000X-0.600000X-0.725000X0.600000X-0.725000X0*%
%TD*%
%TA.AperFunction,ComponentPad*%
%ADD18O,1.700000X1.950000*%
%TD*%
%TA.AperFunction,ComponentPad*%
%ADD19RoundRect,0.250000X0.600000X0.750000X-0.600000X0.750000X-0.600000X-0.750000X0.600000X-0.750000X0*%
%TD*%
%TA.AperFunction,ComponentPad*%
%ADD20O,1.700000X2.000000*%
%TD*%
%TA.AperFunction,ComponentPad*%
%ADD21RoundRect,0.250000X-0.600000X-0.725000X0.600000X-0.725000X0.600000X0.725000X-0.600000X0.725000X0*%
%TD*%
%TA.AperFunction,ComponentPad*%
%ADD22R,1.400000X3.400000*%
%TD*%
%TA.AperFunction,ComponentPad*%
%ADD23O,1.400000X3.400000*%
%TD*%
%TA.AperFunction,ComponentPad*%
%ADD24R,1.700000X2.200000*%
%TD*%
%TA.AperFunction,ComponentPad*%
%ADD25O,1.700000X2.200000*%
%TD*%
%TA.AperFunction,ComponentPad*%
%ADD26C,1.778000*%
%TD*%
%TA.AperFunction,ComponentPad*%
%ADD27C,3.200000*%
%TD*%
%TA.AperFunction,ComponentPad*%
%ADD28R,1.524000X1.524000*%
%TD*%
%TA.AperFunction,ComponentPad*%
%ADD29C,1.524000*%
%TD*%
%TA.AperFunction,ComponentPad*%
%ADD30C,6.200000*%
%TD*%
%TA.AperFunction,ComponentPad*%
%ADD31RoundRect,0.250000X-0.725000X0.600000X-0.725000X-0.600000X0.725000X-0.600000X0.725000X0.600000X0*%
%TD*%
%TA.AperFunction,Conductor*%
%ADD32C,0.200000*%
%TD*%
G04 APERTURE END LIST*
D10*
%TO.P,U1,Vin,Vin_Vin*%
%TO.N,VCC*%
X205992000Y-34798000D03*
%TO.P,U1,VUSB*%
%TO.N,N/C*%
X203452000Y-37338000D03*
%TO.P,U1,VBAT*%
X193292000Y-80518000D03*
D11*
%TO.P,U1,USB_GND2*%
X193802000Y-51308000D03*
%TO.P,U1,USB_GND1*%
X193802000Y-48768000D03*
D12*
%TO.P,U1,T-*%
X199542000Y-47768000D03*
%TO.P,U1,T+*%
X199542000Y-49768000D03*
%TO.P,U1,R-*%
X203542000Y-49768000D03*
%TO.P,U1,R+*%
X203542000Y-47768000D03*
D10*
%TO.P,U1,PROGRAM*%
X200912000Y-80518000D03*
%TO.P,U1,ON/OFF*%
X203452000Y-80518000D03*
D12*
%TO.P,U1,LED*%
X201542000Y-47768000D03*
%TO.P,U1,GND5*%
X201542000Y-49768000D03*
D10*
%TO.P,U1,GND2*%
X205992000Y-70358000D03*
%TO.P,U1,GND1*%
X190752000Y-34798000D03*
%TO.P,U1,GND,GND_GND*%
%TO.N,Net-(J5-Pin_2)*%
X205992000Y-37338000D03*
D11*
%TO.P,U1,D-*%
%TO.N,N/C*%
X193802000Y-43688000D03*
%TO.P,U1,D+*%
X193802000Y-46228000D03*
D10*
%TO.P,U1,41,A17_41*%
%TO.N,unconnected-(U1-A17-Pad41)*%
X205992000Y-72898000D03*
%TO.P,U1,40,A16_40*%
%TO.N,unconnected-(U1-A16-Pad40)*%
X205992000Y-75438000D03*
%TO.P,U1,39,A15_39*%
%TO.N,unconnected-(U1-A15-Pad39)*%
X205992000Y-77978000D03*
%TO.P,U1,38,A14_38*%
%TO.N,unconnected-(U1-A14-Pad38)*%
X205992000Y-80518000D03*
%TO.P,U1,37,CS_37*%
%TO.N,unconnected-(U1-CS-Pad37)*%
X205992000Y-83058000D03*
%TO.P,U1,36,CS_36*%
%TO.N,unconnected-(U1-CS-Pad36)*%
X205992000Y-85598000D03*
%TO.P,U1,35,TX8_35*%
%TO.N,unconnected-(U1-TX8-Pad35)*%
X205992000Y-88138000D03*
%TO.P,U1,34,RX8_34*%
%TO.N,unconnected-(U1-RX8-Pad34)*%
X205992000Y-90678000D03*
%TO.P,U1,33,MCLK2_33*%
%TO.N,unconnected-(U1-MCLK2-Pad33)*%
X205992000Y-93218000D03*
%TO.P,U1,32,OUT1B_32*%
%TO.N,unconnected-(U1-OUT1B-Pad32)*%
X190752000Y-93218000D03*
%TO.P,U1,31,CTX3_31*%
%TO.N,unconnected-(U1-CTX3-Pad31)*%
X190752000Y-90678000D03*
%TO.P,U1,30,CRX3_30*%
%TO.N,unconnected-(U1-CRX3-Pad30)*%
X190752000Y-88138000D03*
%TO.P,U1,29,TX7_29*%
%TO.N,unconnected-(U1-TX7-Pad29)*%
X190752000Y-85598000D03*
%TO.P,U1,28,RX7_28*%
%TO.N,unconnected-(U1-RX7-Pad28)*%
X190752000Y-83058000D03*
%TO.P,U1,27,A13_27*%
%TO.N,unconnected-(U1-A13-Pad27)*%
X190752000Y-80518000D03*
%TO.P,U1,26,A12_26*%
%TO.N,unconnected-(U1-A12-Pad26)*%
X190752000Y-77978000D03*
%TO.P,U1,25,A11_25*%
%TO.N,unconnected-(U1-A11-Pad25)*%
X190752000Y-75438000D03*
%TO.P,U1,24,A10_24*%
%TO.N,unconnected-(U1-A10-Pad24)*%
X190752000Y-72898000D03*
%TO.P,U1,23,A9_23*%
%TO.N,unconnected-(U1-A9-Pad23)*%
X205992000Y-42418000D03*
%TO.P,U1,22,A8_22*%
%TO.N,unconnected-(U1-A8-Pad22)*%
X205992000Y-44958000D03*
%TO.P,U1,21,A7_21*%
%TO.N,unconnected-(U1-A7-Pad21)*%
X205992000Y-47498000D03*
%TO.P,U1,20,A6_20*%
%TO.N,unconnected-(U1-A6-Pad20)*%
X205992000Y-50038000D03*
%TO.P,U1,19,A5_19*%
%TO.N,Net-(U1-A5)*%
X205992000Y-52578000D03*
%TO.P,U1,18,A4_18*%
%TO.N,Net-(U1-A4)*%
X205992000Y-55118000D03*
%TO.P,U1,17,A3_17*%
%TO.N,unconnected-(U1-A3-Pad17)*%
X205992000Y-57658000D03*
%TO.P,U1,16,A2_16*%
%TO.N,unconnected-(U1-A2-Pad16)*%
X205992000Y-60198000D03*
%TO.P,U1,15,A1_15*%
%TO.N,unconnected-(U1-A1-Pad15)*%
X205992000Y-62738000D03*
%TO.P,U1,14,A0_14*%
%TO.N,unconnected-(U1-A0-Pad14)*%
X205992000Y-65278000D03*
%TO.P,U1,13,SCK_13*%
%TO.N,unconnected-(U1-SCK-Pad13)*%
X205992000Y-67818000D03*
%TO.P,U1,12,MISO_12*%
%TO.N,unconnected-(U1-MISO-Pad12)*%
X190752000Y-67818000D03*
%TO.P,U1,11,MOSI_11*%
%TO.N,unconnected-(U1-MOSI-Pad11)*%
X190752000Y-65278000D03*
%TO.P,U1,10,MQSR_10*%
%TO.N,unconnected-(U1-MQSR-Pad10)*%
X190752000Y-62738000D03*
%TO.P,U1,9,OUT1C_9*%
%TO.N,unconnected-(U1-OUT1C-Pad9)*%
X190752000Y-60198000D03*
%TO.P,U1,8,IN1_8*%
%TO.N,Net-(J7-Pin_1)*%
X190752000Y-57658000D03*
%TO.P,U1,7,OUT1A_7*%
%TO.N,Net-(J5-Pin_3)*%
X190752000Y-55118000D03*
%TO.P,U1,6,OUT1D_6*%
%TO.N,Net-(J5-Pin_1)*%
X190752000Y-52578000D03*
D11*
%TO.P,U1,5V*%
%TO.N,N/C*%
X193802000Y-41148000D03*
D10*
%TO.P,U1,5,IN2_5*%
%TO.N,Net-(J6-Pin_3)*%
X190752000Y-50038000D03*
%TO.P,U1,4,BCLK2_4*%
%TO.N,Net-(J6-Pin_6)*%
X190752000Y-47498000D03*
%TO.P,U1,3.3V_3*%
%TO.N,N/C*%
X195832000Y-80518000D03*
%TO.P,U1,3.3V_2*%
X205992000Y-39878000D03*
%TO.P,U1,3.3V_1*%
X190752000Y-70358000D03*
%TO.P,U1,3,LRCLK2_3*%
%TO.N,Net-(J6-Pin_2)*%
X190752000Y-44958000D03*
%TO.P,U1,2,OUT2_2*%
%TO.N,Net-(J6-Pin_5)*%
X190752000Y-42418000D03*
%TO.P,U1,1,TX1_1*%
%TO.N,Net-(U1-TX1)*%
X190752000Y-39878000D03*
%TO.P,U1,0,RX1_0*%
%TO.N,Net-(U1-RX1)*%
X190752000Y-37338000D03*
%TD*%
D13*
%TO.P,J7,1,Pin_1_1*%
%TO.N,Net-(J7-Pin_1)*%
X183896000Y-73406000D03*
D14*
%TO.P,J7,2,Pin_2_2*%
%TO.N,unconnected-(J7-Pin_2-Pad2)*%
X183896000Y-70906000D03*
%TD*%
D15*
%TO.P,J6,1,Pin_1_1*%
%TO.N,Net-(J5-Pin_2)*%
X183896000Y-49744000D03*
D16*
%TO.P,J6,2,Pin_2_2*%
%TO.N,Net-(J6-Pin_2)*%
X183896000Y-47244000D03*
%TO.P,J6,3,Pin_3_3*%
%TO.N,Net-(J6-Pin_3)*%
X183896000Y-44744000D03*
%TO.P,J6,4,Pin_4_4*%
%TO.N,Net-(J5-Pin_2)*%
X183896000Y-42244000D03*
%TO.P,J6,5,Pin_5_5*%
%TO.N,Net-(J6-Pin_5)*%
X183896000Y-39744000D03*
%TO.P,J6,6,Pin_6_6*%
%TO.N,Net-(J6-Pin_6)*%
X183896000Y-37244000D03*
%TD*%
D17*
%TO.P,J4,1,1_1*%
%TO.N,Net-(J5-Pin_2)*%
X163068000Y-55880000D03*
D18*
%TO.P,J4,2,2_2*%
%TO.N,VCC*%
X160568000Y-55880000D03*
%TO.P,J4,3,3_3*%
%TO.N,Net-(U2-VIN)*%
X158068000Y-55880000D03*
%TD*%
D19*
%TO.P,J3,1,1_1*%
%TO.N,Net-(U1-TX1)*%
X189992000Y-30226000D03*
D20*
%TO.P,J3,2,2_2*%
%TO.N,Net-(U1-RX1)*%
X187492000Y-30226000D03*
%TD*%
D21*
%TO.P,J1,1,1_1*%
%TO.N,Net-(J1-Pad1)*%
X182666000Y-102062000D03*
D18*
%TO.P,J1,2,2_2*%
%TO.N,Net-(SW1-A)*%
X185166000Y-102062000D03*
%TO.P,J1,3,3_3*%
%TO.N,Net-(SW1-C)*%
X187666000Y-102062000D03*
%TD*%
D22*
%TO.P,U3,1,1_1*%
%TO.N,Net-(J1-Pad1)*%
X199136000Y-102616000D03*
D23*
%TO.P,U3,2,2_2*%
%TO.N,Net-(J5-Pin_2)*%
X204136000Y-102616000D03*
%TD*%
D24*
%TO.P,SW1,1,C_1*%
%TO.N,Net-(SW1-C)*%
X205700000Y-116078000D03*
D25*
%TO.P,SW1,2,B_2*%
%TO.N,Net-(J5-Pin_2)*%
X201400000Y-116078000D03*
%TO.P,SW1,3,A_3*%
%TO.N,Net-(SW1-A)*%
X197100000Y-116078000D03*
%TO.P,SW1,4*%
%TO.N,N/C*%
X205700000Y-120678000D03*
%TO.P,SW1,5*%
X201400000Y-120678000D03*
%TO.P,SW1,6*%
X197100000Y-120678000D03*
%TD*%
D26*
%TO.P,U2,1,VIN_1*%
%TO.N,Net-(U2-VIN)*%
X155194000Y-45720000D03*
%TO.P,U2,2,3Vo_2*%
%TO.N,unconnected-(U2-3Vo-Pad2)*%
X157734000Y-45720000D03*
%TO.P,U2,3,GND_3*%
%TO.N,Net-(J5-Pin_2)*%
X160274000Y-45720000D03*
%TO.P,U2,4,SCL_4*%
%TO.N,Net-(U1-A5)*%
X162814000Y-45720000D03*
%TO.P,U2,5,SDA_5*%
%TO.N,Net-(U1-A4)*%
X165354000Y-45720000D03*
%TO.P,U2,6,INT_6*%
%TO.N,unconnected-(U2-INT-Pad6)*%
X167894000Y-45720000D03*
%TO.P,U2,7,CS_7*%
%TO.N,unconnected-(U2-CS-Pad7)*%
X167894000Y-27940000D03*
%TO.P,U2,8,DI_8*%
%TO.N,unconnected-(U2-DI-Pad8)*%
X165354000Y-27940000D03*
%TO.P,U2,9,RST_9*%
%TO.N,unconnected-(U2-RST-Pad9)*%
X162814000Y-27940000D03*
%TO.P,U2,10,P1_10*%
%TO.N,unconnected-(U2-P1-Pad10)*%
X160274000Y-27940000D03*
%TO.P,U2,11,P0_11*%
%TO.N,unconnected-(U2-P0-Pad11)*%
X157734000Y-27940000D03*
%TO.P,U2,12,BT_12*%
%TO.N,unconnected-(U2-BT-Pad12)*%
X155194000Y-27940000D03*
D27*
%TO.P,U2,P1*%
%TO.N,N/C*%
X151384000Y-27940000D03*
%TO.P,U2,P2*%
X171704000Y-27940000D03*
%TO.P,U2,P3*%
X151384000Y-45720000D03*
%TO.P,U2,P4*%
X171704000Y-45720000D03*
%TD*%
D26*
%TO.P,U4,0,PWM_0_0*%
%TO.N,unconnected-(U4-PWM_0-Pad0)*%
X88392000Y-43180000D03*
%TO.P,U4,1,PWM_1_1*%
%TO.N,unconnected-(U4-PWM_1-Pad1)*%
X90932000Y-43180000D03*
%TO.P,U4,2,PWM_2_2*%
%TO.N,unconnected-(U4-PWM_2-Pad2)*%
X93472000Y-43180000D03*
%TO.P,U4,3,PWM_3_3*%
%TO.N,unconnected-(U4-PWM_3-Pad3)*%
X96012000Y-43180000D03*
%TO.P,U4,4,PWM_4_4*%
%TO.N,unconnected-(U4-PWM_4-Pad4)*%
X101092000Y-43180000D03*
%TO.P,U4,5,PWM_5_5*%
%TO.N,unconnected-(U4-PWM_5-Pad5)*%
X103632000Y-43180000D03*
%TO.P,U4,6,PWM_6_6*%
%TO.N,unconnected-(U4-PWM_6-Pad6)*%
X106172000Y-43180000D03*
%TO.P,U4,7,PWM_7_7*%
%TO.N,unconnected-(U4-PWM_7-Pad7)*%
X108712000Y-43180000D03*
%TO.P,U4,8,PWM_8_8*%
%TO.N,unconnected-(U4-PWM_8-Pad8)*%
X116332000Y-43180000D03*
%TO.P,U4,9,PWM_9_9*%
%TO.N,unconnected-(U4-PWM_9-Pad9)*%
X118872000Y-43180000D03*
%TO.P,U4,10,PWM_10_10*%
%TO.N,unconnected-(U4-PWM_10-Pad10)*%
X121412000Y-43180000D03*
%TO.P,U4,11,PWM_11_11*%
%TO.N,unconnected-(U4-PWM_11-Pad11)*%
X123952000Y-43180000D03*
%TO.P,U4,12,PWM_12_12*%
%TO.N,unconnected-(U4-PWM_12-Pad12)*%
X129032000Y-43180000D03*
%TO.P,U4,13,PWM_13_13*%
%TO.N,unconnected-(U4-PWM_13-Pad13)*%
X131572000Y-43180000D03*
%TO.P,U4,14,PWM_14_14*%
%TO.N,unconnected-(U4-PWM_14-Pad14)*%
X134112000Y-43180000D03*
%TO.P,U4,15,PWM_15_15*%
%TO.N,unconnected-(U4-PWM_15-Pad15)*%
X136652000Y-43180000D03*
%TO.P,U4,GND_1,GND_GND_1*%
%TO.N,GND*%
X83312000Y-30480000D03*
%TO.P,U4,GND_2,GND_GND_2*%
X141605000Y-30480000D03*
%TO.P,U4,GND_3,GND_GND_3*%
X88392000Y-48260000D03*
%TO.P,U4,GND_4,GND_GND_4*%
X90932000Y-48260000D03*
%TO.P,U4,GND_5,GND_GND_5*%
X93472000Y-48260000D03*
%TO.P,U4,GND_6,GND_GND_6*%
X96012000Y-48260000D03*
%TO.P,U4,GND_7,GND_GND_7*%
X101092000Y-48260000D03*
%TO.P,U4,GND_8,GND_GND_8*%
X103632000Y-48260000D03*
%TO.P,U4,GND_9,GND_GND_9*%
X106172000Y-48260000D03*
%TO.P,U4,GND_10,GND_GND_10*%
X108712000Y-48260000D03*
%TO.P,U4,GND_11,GND_GND_11*%
X116332000Y-48260000D03*
%TO.P,U4,GND_12,GND_GND_12*%
X118872000Y-48260000D03*
%TO.P,U4,GND_13,GND_GND_13*%
X121412000Y-48260000D03*
%TO.P,U4,GND_14,GND_GND_14*%
X123952000Y-48260000D03*
%TO.P,U4,GND_15,GND_GND_15*%
X129032000Y-48260000D03*
%TO.P,U4,GND_16,GND_GND_16*%
X131572000Y-48260000D03*
%TO.P,U4,GND_17,GND_GND_17*%
X134112000Y-48260000D03*
%TO.P,U4,GND_18,GND_GND_18*%
X136652000Y-48260000D03*
%TO.P,U4,OE_1,~{OE}_OE_1*%
%TO.N,Net-(U4-~{OE}-PadOE_1)*%
X83312000Y-33020000D03*
%TO.P,U4,OE_2,~{OE}_OE_2*%
X141605000Y-33020000D03*
D27*
%TO.P,U4,S1*%
%TO.N,N/C*%
X84582000Y-27432000D03*
%TO.P,U4,S2*%
X140462000Y-27432000D03*
%TO.P,U4,S3*%
X84582000Y-46482000D03*
%TO.P,U4,S4*%
X140462000Y-46482000D03*
D26*
%TO.P,U4,SCL_1,SCL_SCL_1*%
%TO.N,Net-(U1-A5)*%
X83312000Y-35560000D03*
%TO.P,U4,SCL_2,SCL_SCL_2*%
X141605000Y-35560000D03*
%TO.P,U4,SDA_1,SDA_SDA_1*%
%TO.N,Net-(U1-A4)*%
X83312000Y-38100000D03*
%TO.P,U4,SDA_2,SDA_SDA_2*%
X141605000Y-38100000D03*
%TO.P,U4,V+_1,V+_V+_1*%
%TO.N,V+*%
X83312000Y-43180000D03*
%TO.P,U4,V+_2,V+_V+_2*%
X141605000Y-43180000D03*
%TO.P,U4,V+_3,V+_V+_3*%
X88392000Y-45720000D03*
%TO.P,U4,V+_4,V+_V+_4*%
X90932000Y-45720000D03*
%TO.P,U4,V+_5,V+_V+_5*%
X93472000Y-45720000D03*
%TO.P,U4,V+_6,V+_V+_6*%
X96012000Y-45720000D03*
%TO.P,U4,V+_7,V+_V+_7*%
X101092000Y-45720000D03*
%TO.P,U4,V+_8,V+_V+_8*%
X103632000Y-45720000D03*
%TO.P,U4,V+_9,V+_V+_9*%
X106172000Y-45720000D03*
%TO.P,U4,V+_10,V+_V+_10*%
X108712000Y-45720000D03*
%TO.P,U4,V+_11,V+_V+_11*%
X116332000Y-45720000D03*
%TO.P,U4,V+_12,V+_V+_12*%
X118872000Y-45720000D03*
%TO.P,U4,V+_13,V+_V+_13*%
X121412000Y-45720000D03*
%TO.P,U4,V+_14,V+_V+_14*%
X123952000Y-45720000D03*
%TO.P,U4,V+_15,V+_V+_15*%
X129032000Y-45720000D03*
%TO.P,U4,V+_16,V+_V+_16*%
X131572000Y-45720000D03*
%TO.P,U4,V+_17,V+_V+_17*%
X134112000Y-45720000D03*
%TO.P,U4,V+_18,V+_V+_18*%
X136652000Y-45720000D03*
%TO.P,U4,VCC_1,VCC_VCC_1*%
%TO.N,VCC*%
X83312000Y-40640000D03*
%TO.P,U4,VCC_2,VCC_VCC_2*%
X141605000Y-40640000D03*
%TD*%
D28*
%TO.P,U6,1,3V3_1*%
%TO.N,3V3*%
X98624000Y-67275000D03*
D29*
%TO.P,U6,2,5V0_2*%
%TO.N,5V0*%
X98624000Y-64735000D03*
%TO.P,U6,3,GPIO2/SDA1_3*%
%TO.N,unconnected-(U6-GPIO2{slash}SDA1-Pad3)*%
X101164000Y-67275000D03*
%TO.P,U6,4,5V0_4*%
%TO.N,5V0*%
X101164000Y-64735000D03*
%TO.P,U6,5,GPIO3/SCL1_5*%
%TO.N,unconnected-(U6-GPIO3{slash}SCL1-Pad5)*%
X103704000Y-67275000D03*
%TO.P,U6,6,GND_6*%
%TO.N,GND*%
X103704000Y-64735000D03*
%TO.P,U6,7,GPIO4/GPIO_GCKL_7*%
%TO.N,unconnected-(U6-GPIO4{slash}GPIO_GCKL-Pad7)*%
X106244000Y-67275000D03*
%TO.P,U6,8,TXD0/GPIO14_8*%
%TO.N,unconnected-(U6-TXD0{slash}GPIO14-Pad8)*%
X106244000Y-64735000D03*
%TO.P,U6,9,GND_9*%
%TO.N,GND*%
X108784000Y-67275000D03*
%TO.P,U6,10,RXD0/GPIO15_10*%
%TO.N,unconnected-(U6-RXD0{slash}GPIO15-Pad10)*%
X108784000Y-64735000D03*
%TO.P,U6,11,GPIO17/GPIO_GEN0_11*%
%TO.N,unconnected-(U6-GPIO17{slash}GPIO_GEN0-Pad11)*%
X111324000Y-67275000D03*
%TO.P,U6,12,GPIO18/GPIO_GEN1_12*%
%TO.N,unconnected-(U6-GPIO18{slash}GPIO_GEN1-Pad12)*%
X111324000Y-64735000D03*
%TO.P,U6,13,GPIO27/GPIO_GEN2_13*%
%TO.N,unconnected-(U6-GPIO27{slash}GPIO_GEN2-Pad13)*%
X113864000Y-67275000D03*
%TO.P,U6,14,GND_14*%
%TO.N,GND*%
X113864000Y-64735000D03*
%TO.P,U6,15,GPIO22/GPIO_GEN3_15*%
%TO.N,unconnected-(U6-GPIO22{slash}GPIO_GEN3-Pad15)*%
X116404000Y-67275000D03*
%TO.P,U6,16,GPIO23/GPIO_GEN4_16*%
%TO.N,unconnected-(U6-GPIO23{slash}GPIO_GEN4-Pad16)*%
X116404000Y-64735000D03*
%TO.P,U6,17,3V3_17*%
%TO.N,3V3*%
X118944000Y-67275000D03*
%TO.P,U6,18,GPIO24/GPIO_GEN5_18*%
%TO.N,unconnected-(U6-GPIO24{slash}GPIO_GEN5-Pad18)*%
X118944000Y-64735000D03*
%TO.P,U6,19,GPIO10/SPI_MOSI_19*%
%TO.N,unconnected-(U6-GPIO10{slash}SPI_MOSI-Pad19)*%
X121484000Y-67275000D03*
%TO.P,U6,20,GND_20*%
%TO.N,GND*%
X121484000Y-64735000D03*
%TO.P,U6,21,GPIO9/SPI_MISO_21*%
%TO.N,unconnected-(U6-GPIO9{slash}SPI_MISO-Pad21)*%
X124024000Y-67275000D03*
%TO.P,U6,22,GPIO25/GPIO_GEN6_22*%
%TO.N,unconnected-(U6-GPIO25{slash}GPIO_GEN6-Pad22)*%
X124024000Y-64735000D03*
%TO.P,U6,23,GPIO11/SPI_SCLK_23*%
%TO.N,unconnected-(U6-GPIO11{slash}SPI_SCLK-Pad23)*%
X126564000Y-67275000D03*
%TO.P,U6,24,GPIO8/~{SPI_CE0}_24*%
%TO.N,unconnected-(U6-GPIO8{slash}~{SPI_CE0}-Pad24)*%
X126564000Y-64735000D03*
%TO.P,U6,25,GND_25*%
%TO.N,GND*%
X129104000Y-67275000D03*
%TO.P,U6,26,GPIO7/~{SPI_CE1}_26*%
%TO.N,unconnected-(U6-GPIO7{slash}~{SPI_CE1}-Pad26)*%
X129104000Y-64735000D03*
%TO.P,U6,27,ID_SD_27*%
%TO.N,unconnected-(U6-ID_SD-Pad27)*%
X131644000Y-67275000D03*
%TO.P,U6,28,ID_SC_28*%
%TO.N,unconnected-(U6-ID_SC-Pad28)*%
X131644000Y-64735000D03*
%TO.P,U6,29,GPIO5_29*%
%TO.N,unconnected-(U6-GPIO5-Pad29)*%
X134184000Y-67275000D03*
%TO.P,U6,30,GND_30*%
%TO.N,GND*%
X134184000Y-64735000D03*
%TO.P,U6,31,GPIO6_31*%
%TO.N,unconnected-(U6-GPIO6-Pad31)*%
X136724000Y-67275000D03*
%TO.P,U6,32,GPIO12_32*%
%TO.N,unconnected-(U6-GPIO12-Pad32)*%
X136724000Y-64735000D03*
%TO.P,U6,33,GPIO13_33*%
%TO.N,unconnected-(U6-GPIO13-Pad33)*%
X139264000Y-67275000D03*
%TO.P,U6,34,GND_34*%
%TO.N,GND*%
X139264000Y-64735000D03*
%TO.P,U6,35,GPIO19_35*%
%TO.N,unconnected-(U6-GPIO19-Pad35)*%
X141804000Y-67275000D03*
%TO.P,U6,36,GPIO16_36*%
%TO.N,unconnected-(U6-GPIO16-Pad36)*%
X141804000Y-64735000D03*
%TO.P,U6,37,GPIO26_37*%
%TO.N,unconnected-(U6-GPIO26-Pad37)*%
X144344000Y-67275000D03*
%TO.P,U6,38,GPIO20_38*%
%TO.N,unconnected-(U6-GPIO20-Pad38)*%
X144344000Y-64735000D03*
%TO.P,U6,39,GND_39*%
%TO.N,GND*%
X146884000Y-67275000D03*
%TO.P,U6,40,GPIO21_40*%
%TO.N,unconnected-(U6-GPIO21-Pad40)*%
X146884000Y-64735000D03*
D30*
%TO.P,U6,S1,SHIELD_S1*%
%TO.N,SHIELD*%
X93754000Y-66005000D03*
%TO.P,U6,S2,SHIELD_S2*%
X151754000Y-66005000D03*
%TO.P,U6,S3,SHIELD_S3*%
X151754000Y-115005000D03*
%TO.P,U6,S4,SHIELD_S4*%
X93754000Y-115005000D03*
%TD*%
D31*
%TO.P,J5,1,Pin_1_1*%
%TO.N,Net-(J5-Pin_1)*%
X184404000Y-56388000D03*
D16*
%TO.P,J5,2,Pin_2_2*%
%TO.N,Net-(J5-Pin_2)*%
X184404000Y-58888000D03*
%TO.P,J5,3,Pin_3_3*%
%TO.N,Net-(J5-Pin_3)*%
X184404000Y-61388000D03*
%TO.P,J5,4,Pin_4_4*%
%TO.N,Net-(J5-Pin_2)*%
X184404000Y-63888000D03*
%TD*%
%TO.N,Net-(SW1-C)*%
D32*
X191684000Y-102062000D02*
X205700000Y-116078000D01*
X187666000Y-102062000D02*
X191684000Y-102062000D01*
%TO.N,Net-(J1-Pad1)*%
X183902000Y-100832000D02*
X185166000Y-99568000D01*
X183896000Y-100832000D02*
X183902000Y-100832000D01*
X196088000Y-99568000D02*
X185166000Y-99568000D01*
X183896000Y-100832000D02*
X182666000Y-102062000D01*
X199136000Y-102616000D02*
X196088000Y-99568000D01*
%TO.N,Net-(SW1-A)*%
X197100000Y-113996000D02*
X185166000Y-102062000D01*
X197100000Y-116078000D02*
X197100000Y-113996000D01*
%TO.N,Net-(J5-Pin_2)*%
X204136000Y-102282000D02*
X198120000Y-96266000D01*
X204136000Y-102616000D02*
X204136000Y-102282000D01*
X204136000Y-108926000D02*
X204136000Y-102616000D01*
X208240000Y-116840000D02*
X208240000Y-113030000D01*
X206716000Y-118364000D02*
X208240000Y-116840000D01*
X203668000Y-118364000D02*
X206716000Y-118364000D01*
X203668000Y-118346000D02*
X203668000Y-118364000D01*
X208240000Y-113030000D02*
X204136000Y-108926000D01*
X201400000Y-116078000D02*
X203668000Y-118346000D01*
%TO.N,Net-(J6-Pin_2)*%
X189230000Y-46480000D02*
X190752000Y-44958000D01*
X189230000Y-47752000D02*
X189230000Y-46480000D01*
X191516000Y-48768000D02*
X190246000Y-48768000D01*
X192278000Y-50800000D02*
X192278000Y-49530000D01*
X189230000Y-51308000D02*
X191770000Y-51308000D01*
X192278000Y-49530000D02*
X191516000Y-48768000D01*
X185166000Y-47244000D02*
X189230000Y-51308000D01*
X183896000Y-47244000D02*
X185166000Y-47244000D01*
X191770000Y-51308000D02*
X192278000Y-50800000D01*
X190246000Y-48768000D02*
X189230000Y-47752000D01*
%TO.N,Net-(J6-Pin_6)*%
X190047686Y-41148000D02*
X186143686Y-37244000D01*
X192278000Y-42252420D02*
X191173580Y-41148000D01*
X192278000Y-45972000D02*
X192278000Y-42252420D01*
X191173580Y-41148000D02*
X190047686Y-41148000D01*
X186143686Y-37244000D02*
X183896000Y-37244000D01*
X190752000Y-47498000D02*
X192278000Y-45972000D01*
%TO.N,Net-(J6-Pin_3)*%
X185458000Y-44744000D02*
X190752000Y-50038000D01*
X183896000Y-44744000D02*
X185458000Y-44744000D01*
%TO.N,Net-(J6-Pin_5)*%
X188078000Y-39744000D02*
X190752000Y-42418000D01*
X183896000Y-39744000D02*
X188078000Y-39744000D01*
%TO.N,Net-(J7-Pin_1)*%
X188214000Y-60196000D02*
X190752000Y-57658000D01*
X188214000Y-69088000D02*
X188214000Y-60196000D01*
X183896000Y-73406000D02*
X188214000Y-69088000D01*
%TO.N,Net-(J5-Pin_1)*%
X186942000Y-56388000D02*
X190752000Y-52578000D01*
X184404000Y-56388000D02*
X186942000Y-56388000D01*
%TO.N,Net-(J5-Pin_3)*%
X184482000Y-61388000D02*
X190752000Y-55118000D01*
X184404000Y-61388000D02*
X184482000Y-61388000D01*
%TO.N,Net-(J5-Pin_2)*%
X181142000Y-44998000D02*
X181142000Y-49744000D01*
X183896000Y-42244000D02*
X181142000Y-44998000D01*
X181142000Y-49744000D02*
X169037000Y-61849000D01*
X183896000Y-49744000D02*
X181142000Y-49744000D01*
X169037000Y-61849000D02*
X165227000Y-65659000D01*
X179451000Y-61849000D02*
X169037000Y-61849000D01*
X181490000Y-63888000D02*
X179451000Y-61849000D01*
X184404000Y-63888000D02*
X181490000Y-63888000D01*
X182412000Y-58888000D02*
X179451000Y-61849000D01*
X165227000Y-65659000D02*
X176022000Y-76454000D01*
X184404000Y-58888000D02*
X182412000Y-58888000D01*
X180340000Y-98044000D02*
X180086000Y-97790000D01*
X198120000Y-96266000D02*
X196342000Y-98044000D01*
X205992000Y-37338000D02*
X198120000Y-45210000D01*
X198120000Y-45210000D02*
X198120000Y-96266000D01*
X196342000Y-98044000D02*
X180340000Y-98044000D01*
%TO.N,Net-(U1-A4)*%
X209296000Y-51814000D02*
X205992000Y-55118000D01*
X209296000Y-33782000D02*
X209296000Y-51814000D01*
X209550000Y-33528000D02*
X209296000Y-33782000D01*
X198374000Y-22352000D02*
X209550000Y-33528000D01*
X139700000Y-22352000D02*
X198374000Y-22352000D01*
X136906000Y-25146000D02*
X139700000Y-22352000D01*
X136906000Y-33401000D02*
X136906000Y-25146000D01*
X141605000Y-38100000D02*
X136906000Y-33401000D01*
%TO.N,Net-(U1-A5)*%
X208534000Y-50036000D02*
X208534000Y-34036000D01*
X205992000Y-52578000D02*
X208534000Y-50036000D01*
X197612000Y-23114000D02*
X208534000Y-34036000D01*
X139954000Y-23114000D02*
X197612000Y-23114000D01*
X137668000Y-31623000D02*
X137668000Y-25400000D01*
X137668000Y-25400000D02*
X139954000Y-23114000D01*
X141605000Y-35560000D02*
X137668000Y-31623000D01*
%TO.N,Net-(J5-Pin_2)*%
X177038000Y-49022000D02*
X175768000Y-50292000D01*
X183896000Y-23876000D02*
X177038000Y-30734000D01*
X207518000Y-34036000D02*
X197358000Y-23876000D01*
X177038000Y-30734000D02*
X177038000Y-49022000D01*
X175768000Y-50292000D02*
X164846000Y-50292000D01*
X207518000Y-35812000D02*
X207518000Y-34036000D01*
X197358000Y-23876000D02*
X183896000Y-23876000D01*
X205992000Y-37338000D02*
X207518000Y-35812000D01*
%TO.N,VCC*%
X163068000Y-60706000D02*
X160568000Y-58206000D01*
X178308000Y-49276000D02*
X166878000Y-60706000D01*
X178308000Y-30734000D02*
X178308000Y-49276000D01*
X184404000Y-24638000D02*
X178308000Y-30734000D01*
X205992000Y-34798000D02*
X195832000Y-24638000D01*
X195832000Y-24638000D02*
X184404000Y-24638000D01*
X166878000Y-60706000D02*
X163068000Y-60706000D01*
%TO.N,Net-(U1-RX1)*%
X187492000Y-34078000D02*
X190752000Y-37338000D01*
X187492000Y-30226000D02*
X187492000Y-34078000D01*
%TO.N,Net-(U1-TX1)*%
X192024000Y-39878000D02*
X190752000Y-39878000D01*
X192278000Y-39624000D02*
X192024000Y-39878000D01*
X192278000Y-32512000D02*
X192278000Y-39624000D01*
X189992000Y-30226000D02*
X192278000Y-32512000D01*
%TO.N,Net-(J1-Pad1)*%
X199136000Y-99314000D02*
X199136000Y-99274000D01*
%TO.N,Net-(J5-Pin_2)*%
X163068000Y-52070000D02*
X163068000Y-55880000D01*
%TO.N,VCC*%
X160528000Y-58166000D02*
X160568000Y-58206000D01*
X153162000Y-58166000D02*
X160528000Y-58166000D01*
X149606000Y-54610000D02*
X153162000Y-58166000D01*
X160568000Y-55880000D02*
X160568000Y-58206000D01*
%TO.N,Net-(J5-Pin_2)*%
X176022000Y-76454000D02*
X176022000Y-93726000D01*
X88900000Y-63246000D02*
X92202000Y-59944000D01*
X92202000Y-59944000D02*
X159512000Y-59944000D01*
X176022000Y-93726000D02*
X180086000Y-97790000D01*
X159512000Y-59944000D02*
X165227000Y-65659000D01*
%TO.N,Net-(U2-VIN)*%
X158068000Y-48594000D02*
X155194000Y-45720000D01*
X158068000Y-56388000D02*
X158068000Y-48594000D01*
%TO.N,Net-(J5-Pin_2)*%
X163068000Y-52070000D02*
X164846000Y-50292000D01*
X160274000Y-45720000D02*
X164846000Y-50292000D01*
%TO.N,VCC*%
X85344000Y-54610000D02*
X149606000Y-54610000D01*
X149606000Y-54610000D02*
X146304000Y-51308000D01*
X146304000Y-45339000D02*
X141605000Y-40640000D01*
X146304000Y-51308000D02*
X146304000Y-45339000D01*
%TO.N,Net-(U1-A4)*%
X157734000Y-38100000D02*
X141605000Y-38100000D01*
X165354000Y-45720000D02*
X157734000Y-38100000D01*
%TO.N,Net-(U1-A5)*%
X173228000Y-48768000D02*
X175006000Y-46990000D01*
X162814000Y-45720000D02*
X165862000Y-48768000D01*
X175006000Y-43434000D02*
X167132000Y-35560000D01*
X167132000Y-35560000D02*
X141605000Y-35560000D01*
X165862000Y-48768000D02*
X173228000Y-48768000D01*
X175006000Y-46990000D02*
X175006000Y-43434000D01*
%TO.N,VCC*%
X80264000Y-49530000D02*
X80264000Y-40894000D01*
X80348000Y-40640000D02*
X80518000Y-40640000D01*
X85344000Y-54610000D02*
X80264000Y-49530000D01*
X80518000Y-40640000D02*
X83312000Y-40640000D01*
X80264000Y-40894000D02*
X80518000Y-40640000D01*
%TD*%
M02*
